<?xml version="1.0" encoding="iso-8859-1"?>
<!-- Uploaded to: SVG Repo, www.svgrepo.com, Generator: SVG Repo Mixer Tools -->
<!DOCTYPE svg PUBLIC "-//W3C//DTD SVG 1.1//EN" "http://www.w3.org/Graphics/SVG/1.1/DTD/svg11.dtd">
<svg height="800px" width="800px" version="1.1" id="Capa_1" xmlns="http://www.w3.org/2000/svg" xmlns:xlink="http://www.w3.org/1999/xlink" 
	 viewBox="0 0 126.464 126.464" xml:space="preserve">
<g>
	<path style="fill:#05293D;" d="M126.462,62.962c-0.131-5.883-4.953-10.629-10.865-10.629c-0.48,0-0.941,0.051-1.404,0.115
		l-16.4-0.055c-0.25,0-0.492,0.021-0.729,0.055l-56.508-0.055c-0.251,0-0.49,0.021-0.729,0.055H10.811
		C4.852,52.448,0,57.301,0,63.262c0,5.961,4.852,10.813,10.811,10.813h29c0.245,0.033,0.49,0.057,0.744,0.057l56.493-0.057
		c0.246,0.033,0.488,0.057,0.744,0.057l17.857-0.057c5.887,0,10.688-4.725,10.813-10.58l0.002-0.295c0-0.059,0-0.115,0-0.17
		L126.462,62.962z M10.811,57.717h24.757c-1.52,1.368-2.482,3.344-2.482,5.545c0,2.199,0.961,4.174,2.48,5.543H10.811
		c-3.054,0-5.541-2.486-5.541-5.543C5.27,60.206,7.758,57.717,10.811,57.717z M39.815,68.805c-2.738-0.363-4.858-2.707-4.858-5.543
		c0-2.841,2.127-5.187,4.871-5.545h52.979c-1.521,1.368-2.483,3.344-2.483,5.545c0,2.199,0.962,4.174,2.48,5.543H39.815z
		 M115.597,68.799c-3.09,0-5.6-2.512-5.6-5.6c0-2.699,1.915-4.955,4.459-5.482h1.193c3.046,0,5.524,2.472,5.541,5.514
		C121.174,66.304,118.672,68.799,115.597,68.799z M92.197,63.262c0-2.841,2.128-5.187,4.869-5.545h13.475
		c-1.48,1.366-2.414,3.314-2.414,5.482c0,2.232,0.989,4.234,2.548,5.605H97.053C94.318,68.442,92.197,66.098,92.197,63.262z"/>
	<path style="fill:#F3B562;" d="M10.811,68.805h24.754c-1.519-1.369-2.48-3.344-2.48-5.543c0-2.201,0.962-4.177,2.482-5.545H10.811
		c-3.054,0-5.541,2.488-5.541,5.545C5.27,66.319,7.758,68.805,10.811,68.805z"/>
	<path style="fill:#F2F2F2;" d="M90.324,63.262c0-2.201,0.963-4.177,2.483-5.545H39.828c-2.744,0.358-4.871,2.704-4.871,5.545
		c0,2.836,2.12,5.18,4.858,5.543h52.989C91.286,67.436,90.324,65.462,90.324,63.262z"/>
	<path style="fill:#FF7F66;" d="M108.126,63.2c0-2.168,0.934-4.116,2.414-5.482H97.066c-2.741,0.358-4.869,2.704-4.869,5.545
		c0,2.836,2.121,5.18,4.856,5.543h13.621C109.116,67.434,108.126,65.432,108.126,63.2z"/>
	<path style="fill:#FF7F66;" d="M115.65,57.717h-1.193c-2.544,0.527-4.459,2.783-4.459,5.482c0,3.088,2.51,5.6,5.6,5.6
		c3.075,0,5.577-2.495,5.594-5.568C121.174,60.189,118.696,57.717,115.65,57.717z"/>
</g>
</svg>