<svg width="24" height="25" viewBox="0 0 24 25" fill="none" xmlns="http://www.w3.org/2000/svg">
<path d="M11.859 2.64619C11.8366 2.70381 11.7552 2.77496 11.6643 2.85436C11.6057 2.90557 11.5431 2.96022 11.49 3.01687L11.04 3.48063C10.8348 3.70873 10.7105 4.00596 10.6886 4.32117C10.6667 4.63639 10.7485 4.94989 10.92 5.20774H10.74C10.5031 5.21504 10.2709 5.27922 10.0605 5.39552C9.85013 5.51181 9.66708 5.67721 9.525 5.8794C9.35916 6.12308 9.24621 6.40302 9.19433 6.69895C9.14244 6.99489 9.15292 7.29943 9.225 7.59052V7.70246C9.00622 7.74404 8.79063 7.80284 8.58 7.87837L8.22 8.00631L7.26 8.34213C6.97396 8.43146 6.7132 8.59512 6.50114 8.81842C6.28907 9.04171 6.13234 9.31766 6.045 9.62148C5.97523 9.87644 5.96613 10.1459 6.0185 10.4056C6.07088 10.6652 6.18309 10.9069 6.345 11.1087C6.94577 11.801 7.64417 12.3891 8.415 12.8518C9.16947 13.3878 10.0242 13.7424 10.92 13.8913H13.44C13.7435 13.8758 14.0456 13.9425 14.3184 14.0851C14.5912 14.2277 14.8257 14.4416 15 14.7069C15.0816 14.7966 15.1418 14.9058 15.1758 15.0255C15.2097 15.1451 15.2163 15.2716 15.195 15.3945C15.1651 15.5982 15.0878 15.7907 14.97 15.9542C14.2236 16.6051 13.7185 17.5177 13.545 18.5289C13.3507 19.2806 13.1102 20.0178 12.825 20.7358C12.645 21.2315 12.48 21.7113 12.36 22.0951C11.8568 22.1337 11.351 22.0905 10.86 21.9671C10.9795 20.779 10.7149 19.5829 10.11 18.5769C9.60554 17.9414 9.32444 17.1385 9.315 16.306C9.41194 15.5164 9.24376 14.7156 8.84023 14.0454C8.43669 13.3752 7.8238 12.8788 7.11 12.6439C5.43069 11.5312 3.95643 10.1004 2.76 8.42209C3.62684 6.61312 4.95227 5.09965 6.58565 4.05369C8.21904 3.00772 10.0949 2.47121 12 2.50513L11.865 2.77699C11.8541 2.73426 11.8521 2.68962 11.859 2.64619ZM11.859 2.64619C11.8605 2.63641 11.8625 2.62669 11.865 2.61707C11.865 2.62634 11.8629 2.63606 11.859 2.64619ZM12 0.506155C8.91751 0.402674 5.92249 1.6076 3.67258 3.85635C1.42268 6.1051 0.101803 9.21386 0 12.5C0.101803 15.7861 1.42268 18.8949 3.67258 21.1437C5.92249 23.3924 8.91751 24.5973 12 24.4938C15.0825 24.5973 18.0775 23.3924 20.3274 21.1437C22.5773 18.8949 23.8982 15.7861 24 12.5C23.8982 9.21386 22.5773 6.1051 20.3274 3.85635C18.0775 1.6076 15.0825 0.402674 12 0.506155ZM22.065 11.3806L20.22 10.9008C19.845 10.7889 19.815 10.7569 19.785 10.7089C19.56 10.3891 19.305 9.9573 19.065 9.54152C19.065 9.45277 18.9909 9.33361 18.9234 9.22529C18.8815 9.15796 18.8423 9.09482 18.825 9.04577C18.7891 8.94366 19.1449 8.39331 19.4121 7.98014C19.4797 7.87565 19.5416 7.77993 19.59 7.70246C19.8487 7.4157 20.1472 7.17299 20.475 6.98283C21.3472 8.28074 21.8944 9.79436 22.065 11.3806ZM1.875 12.5C1.87471 11.8767 1.93504 11.255 2.055 10.645C3.28636 12.2162 4.78197 13.5287 6.465 14.515C7.365 14.8668 7.5 15.2346 7.5 16.306C7.50332 17.6427 7.96172 18.9327 8.79 19.9362C9.0112 20.6299 9.08298 21.3678 9 22.0951C6.99529 21.5392 5.21519 20.3018 3.92946 18.5703C2.64374 16.8389 1.92248 14.7078 1.875 12.5ZM14.355 22.223C14.355 22.0631 14.435 21.889 14.515 21.7148C14.555 21.6278 14.595 21.5407 14.625 21.4554C14.966 20.6283 15.2419 19.7725 15.45 18.8967C15.5675 18.3543 15.8528 17.8699 16.26 17.5214C16.7849 16.9713 17.0911 16.2268 17.115 15.4425C17.1334 15.0706 17.0803 14.6987 16.9591 14.3494C16.8379 14.0002 16.651 13.681 16.41 13.4115C16.0492 12.9396 15.5902 12.5639 15.0695 12.314C14.5487 12.0642 13.9806 11.9472 13.41 11.9723H11.025C9.90476 11.6487 8.87516 11.0395 8.025 10.1972L8.73 9.94131L9.135 9.81338C9.31338 9.72634 9.50924 9.68787 9.705 9.70144L9.84 9.94131C9.95226 10.1658 10.1389 10.3376 10.3635 10.4233C10.5881 10.5091 10.8346 10.5026 11.055 10.4051C11.2732 10.2966 11.4459 10.1059 11.5401 9.86966C11.6343 9.63346 11.6431 9.36848 11.565 9.12573V8.83788C11.4 8.35813 11.205 7.68647 11.085 7.2387C11.4741 7.2561 11.8602 7.15946 12.2013 6.95928C12.5425 6.75909 12.8256 6.46303 13.02 6.10328C13.1131 5.83532 13.1372 5.54565 13.0897 5.26441C13.0422 4.98317 12.9249 4.72063 12.75 4.5041C12.9265 4.33521 13.0919 4.15354 13.245 3.96038C13.3827 3.78474 13.4834 3.57963 13.5403 3.35892C13.5973 3.13821 13.6091 2.90704 13.575 2.68104C15.6716 3.01008 17.6238 4.01445 19.17 5.55956C18.7161 5.85511 18.3148 6.23411 17.985 6.67899C17.6277 7.23571 17.3069 7.81813 17.025 8.42209C16.904 8.79486 16.8735 9.19424 16.9365 9.58295C16.9995 9.97166 17.1538 10.337 17.385 10.645C17.655 11.1407 17.955 11.6205 18.225 12.0202C18.5971 12.5203 19.1331 12.8517 19.725 12.9478C20.055 13.0437 21.225 13.2996 22.05 13.4755C21.7848 15.6076 20.9 17.5977 19.52 19.1665C18.1399 20.7354 16.3338 21.8042 14.355 22.223Z" fill="#008040"/>
<path d="M11.859 2.64619C11.8366 2.70381 11.7552 2.77496 11.6643 2.85436C11.6057 2.90557 11.5431 2.96022 11.49 3.01687L11.04 3.48063C10.8348 3.70873 10.7105 4.00596 10.6886 4.32117C10.6667 4.63639 10.7485 4.94989 10.92 5.20774H10.74C10.5031 5.21504 10.2709 5.27922 10.0605 5.39552C9.85013 5.51181 9.66708 5.67721 9.525 5.8794C9.35916 6.12308 9.24621 6.40302 9.19433 6.69895C9.14244 6.99489 9.15292 7.29943 9.225 7.59052V7.70246C9.00622 7.74404 8.79063 7.80284 8.58 7.87837L8.22 8.00631L7.26 8.34213C6.97396 8.43146 6.7132 8.59512 6.50114 8.81842C6.28907 9.04171 6.13234 9.31766 6.045 9.62148C5.97523 9.87644 5.96613 10.1459 6.0185 10.4056C6.07088 10.6652 6.18309 10.9069 6.345 11.1087C6.94577 11.801 7.64417 12.3891 8.415 12.8518C9.16947 13.3878 10.0242 13.7424 10.92 13.8913H13.44C13.7435 13.8758 14.0456 13.9425 14.3184 14.0851C14.5912 14.2277 14.8257 14.4416 15 14.7069C15.0816 14.7966 15.1418 14.9058 15.1758 15.0255C15.2097 15.1451 15.2163 15.2716 15.195 15.3945C15.1651 15.5982 15.0878 15.7907 14.97 15.9542C14.2236 16.6051 13.7185 17.5177 13.545 18.5289C13.3507 19.2806 13.1102 20.0178 12.825 20.7358C12.645 21.2315 12.48 21.7113 12.36 22.0951C11.8568 22.1337 11.351 22.0905 10.86 21.9671C10.9795 20.779 10.7149 19.5829 10.11 18.5769C9.60554 17.9414 9.32444 17.1385 9.315 16.306C9.41194 15.5164 9.24376 14.7156 8.84023 14.0454C8.43669 13.3752 7.8238 12.8788 7.11 12.6439C5.43069 11.5312 3.95643 10.1004 2.76 8.42209C3.62684 6.61312 4.95227 5.09965 6.58565 4.05369C8.21904 3.00772 10.0949 2.47121 12 2.50513L11.865 2.77699C11.8541 2.73426 11.8521 2.68962 11.859 2.64619ZM11.859 2.64619C11.8605 2.63641 11.8625 2.62669 11.865 2.61707C11.865 2.62634 11.8629 2.63606 11.859 2.64619ZM12 0.506155C8.91751 0.402674 5.92249 1.6076 3.67258 3.85635C1.42268 6.1051 0.101803 9.21386 0 12.5C0.101803 15.7861 1.42268 18.8949 3.67258 21.1437C5.92249 23.3924 8.91751 24.5973 12 24.4938C15.0825 24.5973 18.0775 23.3924 20.3274 21.1437C22.5773 18.8949 23.8982 15.7861 24 12.5C23.8982 9.21386 22.5773 6.1051 20.3274 3.85635C18.0775 1.6076 15.0825 0.402674 12 0.506155ZM22.065 11.3806L20.22 10.9008C19.845 10.7889 19.815 10.7569 19.785 10.7089C19.56 10.3891 19.305 9.9573 19.065 9.54152C19.065 9.45277 18.9909 9.33361 18.9234 9.22529C18.8815 9.15796 18.8423 9.09482 18.825 9.04577C18.7891 8.94366 19.1449 8.39331 19.4121 7.98014C19.4797 7.87565 19.5416 7.77993 19.59 7.70246C19.8487 7.4157 20.1472 7.17299 20.475 6.98283C21.3472 8.28074 21.8944 9.79436 22.065 11.3806ZM1.875 12.5C1.87471 11.8767 1.93504 11.255 2.055 10.645C3.28636 12.2162 4.78197 13.5287 6.465 14.515C7.365 14.8668 7.5 15.2346 7.5 16.306C7.50332 17.6427 7.96172 18.9327 8.79 19.9362C9.0112 20.6299 9.08298 21.3678 9 22.0951C6.99529 21.5392 5.21519 20.3018 3.92946 18.5703C2.64374 16.8389 1.92248 14.7078 1.875 12.5ZM14.355 22.223C14.355 22.0631 14.435 21.889 14.515 21.7148C14.555 21.6278 14.595 21.5407 14.625 21.4554C14.966 20.6283 15.2419 19.7725 15.45 18.8967C15.5675 18.3543 15.8528 17.8699 16.26 17.5214C16.7849 16.9713 17.0911 16.2268 17.115 15.4425C17.1334 15.0706 17.0803 14.6987 16.9591 14.3494C16.8379 14.0002 16.651 13.681 16.41 13.4115C16.0492 12.9396 15.5902 12.5639 15.0695 12.314C14.5487 12.0642 13.9806 11.9472 13.41 11.9723H11.025C9.90476 11.6487 8.87516 11.0395 8.025 10.1972L8.73 9.94131L9.135 9.81338C9.31338 9.72634 9.50924 9.68787 9.705 9.70144L9.84 9.94131C9.95226 10.1658 10.1389 10.3376 10.3635 10.4233C10.5881 10.5091 10.8346 10.5026 11.055 10.4051C11.2732 10.2966 11.4459 10.1059 11.5401 9.86966C11.6343 9.63346 11.6431 9.36848 11.565 9.12573V8.83788C11.4 8.35813 11.205 7.68647 11.085 7.2387C11.4741 7.2561 11.8602 7.15946 12.2013 6.95928C12.5425 6.75909 12.8256 6.46303 13.02 6.10328C13.1131 5.83532 13.1372 5.54565 13.0897 5.26441C13.0422 4.98317 12.9249 4.72063 12.75 4.5041C12.9265 4.33521 13.0919 4.15354 13.245 3.96038C13.3827 3.78474 13.4834 3.57963 13.5403 3.35892C13.5973 3.13821 13.6091 2.90704 13.575 2.68104C15.6716 3.01008 17.6238 4.01445 19.17 5.55956C18.7161 5.85511 18.3148 6.23411 17.985 6.67899C17.6277 7.23571 17.3069 7.81813 17.025 8.42209C16.904 8.79486 16.8735 9.19424 16.9365 9.58295C16.9995 9.97166 17.1538 10.337 17.385 10.645C17.655 11.1407 17.955 11.6205 18.225 12.0202C18.5971 12.5203 19.1331 12.8517 19.725 12.9478C20.055 13.0437 21.225 13.2996 22.05 13.4755C21.7848 15.6076 20.9 17.5977 19.52 19.1665C18.1399 20.7354 16.3338 21.8042 14.355 22.223Z" stroke="#17254B"/>
</svg>
