<?xml version="1.0" encoding="utf-8"?>
<!-- Uploaded to: SVG Repo, www.svgrepo.com, Generator: SVG Repo Mixer Tools -->
<svg width="800px" height="800px" viewBox="0 0 1024 1024" class="icon"  version="1.1" xmlns="http://www.w3.org/2000/svg"><path d="M688.4 238.3H326.9c-5.4 0-9.7-4.4-9.7-9.7V100.7c0-26.9 21.9-48.8 48.8-48.8h283.4c26.9 0 48.8 21.9 48.8 48.8v127.9c0 5.3-4.4 9.7-9.8 9.7z m-351.8-19.5h342.1V100.7c0-16.2-13.2-29.4-29.4-29.4H366c-16.2 0-29.4 13.2-29.4 29.4v118.1z" fill="" /><path d="M845.3 967.4H170l-37-732.6c-1.7-33.9 25.3-62.3 59.2-62.3h630.9c33.9 0 60.9 28.4 59.2 62.3l-37 732.6z" fill="#B6B7B7" /><path d="M845.3 977.2H170c-5.2 0-9.5-4.1-9.7-9.2l-37-732.6c-1-19.1 5.8-37.2 18.9-51.1 13.2-13.8 30.9-21.5 50-21.5h630.9c19.1 0 36.9 7.6 50 21.5 13.2 13.8 19.9 32 18.9 51.1L855 968c-0.2 5.1-4.5 9.2-9.7 9.2z m-666.1-19.5h656.9l36.5-723.4c0.7-13.7-4.1-26.7-13.6-36.7-9.5-9.9-22.2-15.4-35.9-15.4H192.2c-13.7 0-26.5 5.5-35.9 15.4-9.5 9.9-14.3 23-13.6 36.7l36.5 723.4z" fill="" /><path d="M878.3 319.6l4.6-95.3c1.4-28.2-21.1-51.8-49.4-51.8H181.7c-28.2 0-50.7 23.6-49.4 51.8l4.6 95.3h741.4z" fill="#75736F" /><path d="M878.3 329.4H137c-5.2 0-9.5-4.1-9.7-9.3l-4.6-95.3c-0.8-16.3 5-31.8 16.2-43.7s26.5-18.4 42.8-18.4h651.9c16.3 0 31.6 6.5 42.8 18.4 11.3 11.8 17 27.3 16.2 43.7l-4.6 95.3c-0.3 5.2-4.5 9.3-9.7 9.3z m-732-19.5H869l4.2-86c0.5-11-3.3-21.4-10.9-29.3-7.6-7.9-17.8-12.3-28.7-12.3H181.7c-11 0-21.2 4.4-28.7 12.3-7.6 7.9-11.4 18.3-10.9 29.3l4.2 86z" fill="" /><path d="M319.5 883.5c-5.4 0-9.7-4.4-9.7-9.7V418.9c0-5.4 4.4-9.7 9.7-9.7s9.7 4.4 9.7 9.7v454.8c0 5.4-4.4 9.8-9.7 9.8zM507.6 883.5c-5.4 0-9.7-4.4-9.7-9.7V418.9c0-5.4 4.4-9.7 9.7-9.7 5.4 0 9.7 4.4 9.7 9.7v454.8c0.1 5.4-4.3 9.8-9.7 9.8zM695.8 883.5c-5.4 0-9.7-4.4-9.7-9.7V418.9c0-5.4 4.4-9.7 9.7-9.7s9.7 4.4 9.7 9.7v454.8c0 5.4-4.3 9.8-9.7 9.8z" fill="" /></svg>