<?xml version="1.0" encoding="iso-8859-1"?>
<!-- Uploaded to: SVG Repo, www.svgrepo.com, Generator: SVG Repo Mixer Tools -->
<!DOCTYPE svg PUBLIC "-//W3C//DTD SVG 1.1//EN" "http://www.w3.org/Graphics/SVG/1.1/DTD/svg11.dtd">
<svg height="800px" width="800px" version="1.1" id="Capa_1" xmlns="http://www.w3.org/2000/svg" xmlns:xlink="http://www.w3.org/1999/xlink" 
	 viewBox="0 0 341.381 341.381" xml:space="preserve">
<g>
	<path style="fill:#FDD44B;" d="M229.08,149.418v-16.121c0-0.215-0.024-0.427-0.036-0.64l-13.563,28.251h1.663
		C223.724,160.908,229.08,155.754,229.08,149.418z"/>
	<g>
		<path style="fill:#CE593F;" d="M263.087,26.046c0.038-0.35,0.049-0.701,0.036-1.054C263.135,25.345,263.125,25.697,263.087,26.046
			z"/>
		<path style="fill:#CE593F;" d="M262.862,23.322c0.136,0.434,0.205,0.873,0.243,1.312
			C263.067,24.195,262.999,23.756,262.862,23.322z"/>
		<path style="fill:#CE593F;" d="M263.062,26.301c-0.13,0.921-0.407,1.82-0.761,2.655C262.655,28.12,262.933,27.225,263.062,26.301z
			"/>
		<path style="fill:#CE593F;" d="M258.424,26.883c-5.558-2.361-9.948-2.37-13.29,5.282l-38.834,95.48
			c-0.009,0.019-0.016-0.332-0.023-0.312l-13.505,32.837h6.031l61.923-128.607c0.122-0.255,0.258-0.317,0.409-0.557
			c0.41-0.653,0.818-1.323,1.164-2.139C261.036,28.008,259.664,27.411,258.424,26.883z"/>
	</g>
	<g>
		<path style="fill:#EF8829;" d="M84.655,152.718c0.04,0.31,0.093,0.613,0.143,0.919C84.748,153.332,84.694,153.027,84.655,152.718z
			"/>
		<path style="fill:#EF8829;" d="M86.612,159.869c0.047,0.107,0.106,0.207,0.154,0.313
			C86.718,160.076,86.659,159.976,86.612,159.869z"/>
		<path style="fill:#EF8829;" d="M105.965,107.313c1.754-0.354,3.57-0.54,5.429-0.54
			C109.536,106.773,107.72,106.959,105.965,107.313z"/>
		<path style="fill:#EF8829;" d="M85.316,156.07c0.07,0.265,0.13,0.532,0.208,0.794C85.446,156.603,85.386,156.335,85.316,156.07z"
			/>
		<path style="fill:#EF8829;" d="M105.965,107.313c-7.894,1.593-14.541,6.587-18.282,13.352
			C91.424,113.901,98.072,108.906,105.965,107.313z"/>
		<path style="fill:#EF8829;" d="M84.562,130.589c0.277-2.672,0.959-5.227,1.984-7.606
			C85.521,125.362,84.839,127.918,84.562,130.589z"/>
		<path style="fill:#EF8829;" d="M83.105,178.096c-0.572-0.651-1.109-1.334-1.592-2.057
			C81.996,176.764,82.534,177.444,83.105,178.096z"/>
		<path style="fill:#EF8829;" d="M78.24,165.227c0,0.891,0.081,1.762,0.197,2.622C78.321,166.99,78.24,166.118,78.24,165.227z"/>
		<path style="fill:#EF8829;" d="M83.368,178.384c1.176,1.29,2.517,2.421,3.997,3.36C85.885,180.806,84.544,179.672,83.368,178.384z
			"/>
		<path style="fill:#EF8829;" d="M243.316,102.653l-6.696,12.955c4.406,4.836,6.41,11.109,6.41,17.689v16.121
			c0,14.625-11.015,25.751-25.886,25.751h-43.138c-0.053,0-0.104,0.012-0.159,0.012c-0.081,0-0.164-0.012-0.247-0.012h-62.205
			c-9.952,0-19.257-4.955-23.931-12.862c0.066,0.113-0.435,0.623-0.435,0.735v12.209c0,2.801,1.22,5.462,2.284,7.872
			c-0.811-0.358,5.047,2.915,8.791,2.915l132.157-2.486c10.788,0,19.768-7.537,19.768-18.325v-47.739
			C250.029,111.719,247.555,106.316,243.316,102.653z"/>
		<path style="fill:#EF8829;" d="M81.488,175.998c-0.453-0.683-0.85-1.404-1.216-2.143
			C80.637,174.594,81.035,175.314,81.488,175.998z"/>
		<path style="fill:#EF8829;" d="M79.082,170.888c-0.236-0.778-0.409-1.581-0.547-2.396
			C78.673,169.307,78.846,170.11,79.082,170.888z"/>
		<path style="fill:#EF8829;" d="M80.035,173.364c-0.355-0.771-0.675-1.561-0.928-2.381C79.36,171.803,79.68,172.593,80.035,173.364
			z"/>
	</g>
	<path style="fill:#FDD44B;" d="M179.827,134.169h-56.455c-6.582,0-13.343,4.769-13.343,11.104v16.896h58.767L179.827,134.169z"/>
	<path style="fill:#EF8829;" d="M99.457,235.26c0.83,0.407,1.687,0.764,2.561,1.086C101.144,236.024,100.286,235.667,99.457,235.26z
		"/>
	<path style="fill:#EF8829;" d="M105.878,237.421c0.535,0.11,1.072,0.208,1.617,0.284
		C106.95,237.629,106.412,237.531,105.878,237.421z"/>
	<path style="fill:#EF8829;" d="M111.249,237.998L111.249,237.998c-0.835,0-1.652-0.068-2.468-0.143
		c0.235,0.022,0.463,0.065,0.699,0.081C109.48,237.935,110.67,237.998,111.249,237.998z"/>
	<path style="fill:#EF8829;" d="M102.961,236.65c0.573,0.187,1.148,0.367,1.737,0.515
		C104.109,237.016,103.534,236.837,102.961,236.65z"/>
	<path style="fill:#EF8829;" d="M108.029,248.112v24.731c0,6.902,6.74,11.327,13.243,11.327h96.015
		c6.502,0,12.742-4.425,12.742-11.327v-27.56c-5,1.858-8.763,2.907-12.993,2.907C217.037,248.19,110.029,248.157,108.029,248.112z"
		/>
	<path style="fill:#EF8829;" d="M111.249,283.034L111.249,283.034c-1.625,0-3.175-0.331-4.586-0.928
		C108.074,282.703,109.624,283.034,111.249,283.034z"/>
	<g>
		<path style="fill:#84BD93;" d="M100.385,319.141c1.792,4.23,5.987,7.205,10.864,7.205h0.001
			C106.373,326.346,102.178,323.371,100.385,319.141z"/>
		<path style="fill:#84BD93;" d="M217.287,297.169H110.029v17.386c0,6.501,6.64,11.614,13.142,11.614h94.116
			c6.502,0,12.742-5.112,12.742-11.614V295.33C225.029,297.081,221.516,297.169,217.287,297.169z"/>
	</g>
	<g>
		<path style="fill:#84BD93;" d="M101.474,217.76c1.272,1.882,3.074,3.379,5.19,4.275
			C104.548,221.139,102.747,219.643,101.474,217.76z"/>
		<path style="fill:#84BD93;" d="M108.029,199.169v12.004c0,6.501,6.741,10.996,13.242,10.996h96.015
			c6.502,0,12.742-4.495,12.742-10.996v-12.004H108.029z"/>
	</g>
	<path style="fill:#3F2D20;" d="M277.207,18.82c-1.532-4.879-5.618-11.658-16.387-16.237c-14.422-6.132-26.76-1.195-33.001,13.212
		c-0.023,0.052-0.045,0.104-0.066,0.157L200.528,82.89H97.803c-19.077,0-34.597,15.521-34.597,34.598v47.739
		c0,14.336,8.765,26.661,21.217,31.903v117.426c0,14.792,12.034,26.825,26.826,26.825h106.038c14.792,0,26.827-12.033,26.827-26.825
		V197.13c12.452-5.241,21.217-17.567,21.217-31.903v-47.739c0-11.56-5.902-22.308-15.243-28.664l24.019-50.028
		C278.095,32.238,279.197,25.162,277.207,18.82z M250.297,165.227c0,10.787-8.777,19.563-19.565,19.563H97.803
		c-10.787,0-19.563-8.776-19.563-19.563v-47.739c0-10.787,8.776-19.564,19.563-19.564h96.61l-3.598,8.848l-79.42,0.001
		c-14.872,0-26.972,11.899-26.972,26.524v16.122c0,14.625,12.099,26.523,26.972,26.523H173.6c0.082,0.003,0.165,0.012,0.247,0.012
		c0.054,0,0.106-0.011,0.158-0.012h43.139c14.871,0,26.97-11.899,26.97-26.524v-16.121c0-6.579-2.479-12.853-6.885-17.689
		l6.22-12.955c4.24,3.663,6.848,9.066,6.848,14.835V165.227z M229.08,314.556c0,6.501-5.291,11.79-11.793,11.79H111.249
		c-6.502,0-11.792-5.289-11.792-11.79V295.33c3.561,1.75,7.563,2.738,11.792,2.738h106.038c4.23,0,8.231-0.988,11.793-2.738V314.556
		z M99.457,199.825H229.08v11.348c0,6.501-5.291,11.791-11.793,11.791H111.249c-6.502,0-11.792-5.289-11.792-11.791V199.825z
		 M217.287,283.034H111.249c-6.502,0-11.792-5.29-11.792-11.791V235.26c3.561,1.75,7.563,2.738,11.792,2.738h106.038
		c4.23,0,8.231-0.988,11.793-2.738v35.983C229.08,277.744,223.789,283.034,217.287,283.034z M168.796,160.908h-57.401
		c-6.582,0-11.937-5.154-11.937-11.489v-16.122c0-6.336,5.355-11.49,11.937-11.49l73.305-0.001L168.796,160.908z M215.48,160.908
		l13.563-28.251c0.013,0.213,0.036,0.425,0.036,0.64v16.121c0,6.336-5.355,11.49-11.936,11.49H215.48z M198.802,160.908h-13.776
		l17.762-43.673c0.008-0.02,0.015-0.038,0.023-0.057l38.834-95.48c3.341-7.651,7.731-7.642,13.29-5.282
		c3.032,1.29,6.869,3.534,7.927,6.905c0.884,2.817-0.451,5.833-1.728,7.868c-0.151,0.239-0.287,0.487-0.409,0.741L198.802,160.908z"
		/>
</g>
</svg>