<svg width="45" height="43" viewBox="0 0 45 43" fill="none" xmlns="http://www.w3.org/2000/svg">
<path d="M31 36.6667C28.2262 36.6692 25.5052 35.9086 23.1347 34.4682C20.7642 33.0278 18.8356 30.9631 17.56 28.5H31L33.3333 23.8333H16.02C15.9033 23.0633 15.8333 22.2933 15.8333 21.5C15.8333 20.7067 15.9033 19.9367 16.02 19.1667H31L33.3333 14.5H17.56C18.8379 12.0388 20.767 9.97562 23.1369 8.53553C25.5069 7.09544 28.2268 6.33369 31 6.33334C34.7567 6.33334 38.21 7.71001 40.87 9.99668L45 5.86668C41.1579 2.40743 36.1699 0.495341 31 0.500009C21.8533 0.500009 14.1067 6.35668 11.2133 14.5H3L0.666664 19.1667H10.14C9.95102 20.7165 9.95102 22.2835 10.14 23.8333H3L0.666664 28.5H11.2133C14.1067 36.6433 21.8533 42.5 31 42.5C36.39 42.5 41.29 40.47 45 37.1333L40.8467 33.0033C38.21 35.29 34.78 36.6667 31 36.6667Z" fill="#B3DB16"/>
</svg>
