<svg width="32" height="32" viewBox="0 0 32 32" fill="none" xmlns="http://www.w3.org/2000/svg">
<g clip-path="url(#clip0_2_12)">
<path d="M32.1486 11.3164C31.4777 11.9472 30.6687 12.3629 29.7951 12.6015C28.3759 12.9892 26.7858 12.9644 25.1642 12.834C21.9208 12.573 18.5072 11.9228 16.3887 12.6815C14.4004 13.3938 13.2194 14.5358 12.6387 15.8028C12.3889 16.3478 12.2506 16.9215 12.2149 17.5019C16.2826 18.8891 21.4739 18.5931 24.9826 16.3107C21.9679 19.3326 17.4158 20.76 12.6446 19.8379L12.424 19.2892C12.4751 19.4605 12.5344 19.6293 12.6017 19.795C13.6561 22.4064 16.7425 24.5434 21.2676 23.6544C23.3467 23.2459 26.2779 21.8439 28.5489 19.4981C30.5134 17.4686 31.9997 14.7589 32.1486 11.3164ZM20.5 29.1034C19.7437 29.0509 19.0295 28.8136 18.3808 28.4434C17.2471 27.7964 16.271 26.7904 15.3438 25.7012C13.4894 23.5227 11.7715 21.0101 10.0176 20.1816C8.35619 19.3969 6.93938 19.3764 5.81244 19.795C5.33014 19.9738 4.88563 20.2415 4.50194 20.5841C6.17612 23.9408 9.55881 26.9422 13.1288 27.6972C9.40094 27.7019 5.71088 25.7828 3.32219 22.2832C2.41313 24.5208 3.00756 27.6758 6.30656 29.8907C7.83506 30.9168 10.5128 31.8631 13.3613 31.8164C15.7793 31.7768 18.3133 31.0498 20.5 29.1034ZM16.3887 2.09749C13.5214 1.50481 10.9617 2.14176 8.84775 3.31624C6.35775 4.69972 4.51175 6.85889 3.70131 8.51155C1.95206 12.0784 3.01581 15.1062 4.92193 16.5897C5.24068 12.3654 7.4765 8.8589 10.7071 6.99993C7.99287 9.43865 6.564 13.7286 6.79306 17.4726C7.29649 17.5778 7.8152 17.5878 8.32231 17.5019C9.50762 17.3011 10.7252 16.5725 11.7716 15.0624C12.8759 13.4684 13.1066 10.4346 13.6231 7.62099C13.8812 6.21426 14.2225 4.85554 14.8809 3.72849C15.2577 3.08331 15.7597 2.52124 16.3887 2.09749Z" fill="#37BD3D"/>
</g>
<defs>
<clipPath id="clip0_2_12">
<rect width="32" height="32" fill="white" transform="matrix(0 1 -1 0 32 0)"/>
</clipPath>
</defs>
</svg>
