<svg width="167" height="36" viewBox="0 0 167 36" fill="none" xmlns="http://www.w3.org/2000/svg">
<path d="M3.32795 32.5V7.77273H18.8308V10.9844H7.05877V18.5185H18.0218V21.718H7.05877V29.2884H18.9757V32.5H3.32795ZM31.3363 32.8743C29.5413 32.8743 27.9959 32.4678 26.6999 31.6548C25.4121 30.8338 24.422 29.7029 23.7298 28.2621C23.0375 26.8213 22.6914 25.1712 22.6914 23.3118C22.6914 21.4283 23.0456 19.7661 23.7539 18.3253C24.4622 16.8764 25.4603 15.7455 26.7482 14.9325C28.0361 14.1196 29.5534 13.7131 31.3001 13.7131C32.7087 13.7131 33.9644 13.9747 35.0671 14.4979C36.1699 15.013 37.0593 15.7375 37.7354 16.6712C38.4196 17.6049 38.8261 18.6955 38.9549 19.9432H35.4414C35.2482 19.0739 34.8055 18.3253 34.1133 17.6974C33.4291 17.0696 32.5115 16.7557 31.3604 16.7557C30.3543 16.7557 29.4729 17.0213 28.7163 17.5526C27.9677 18.0758 27.3841 18.8243 26.9656 19.7983C26.547 20.7642 26.3377 21.9072 26.3377 23.2273C26.3377 24.5795 26.543 25.7467 26.9535 26.7287C27.364 27.7107 27.9435 28.4714 28.6921 29.0107C29.4487 29.55 30.3382 29.8196 31.3604 29.8196C32.0446 29.8196 32.6644 29.6948 33.2198 29.4453C33.7833 29.1877 34.2541 28.8215 34.6325 28.3466C35.0188 27.8717 35.2885 27.3002 35.4414 26.6321H38.9549C38.8261 27.8314 38.4357 28.902 37.7837 29.8438C37.1317 30.7855 36.2584 31.526 35.1637 32.0653C34.0771 32.6046 32.8013 32.8743 31.3363 32.8743Z" fill="#17254B"/>
<path d="M54.859 11.6462C54.8366 11.7038 54.7552 11.775 54.6643 11.8544C54.6057 11.9056 54.5431 11.9602 54.49 12.0169L54.04 12.4806C53.8348 12.7087 53.7105 13.006 53.6886 13.3212C53.6667 13.6364 53.7485 13.9499 53.92 14.2077H53.74C53.5031 14.215 53.2709 14.2792 53.0605 14.3955C52.8501 14.5118 52.6671 14.6772 52.525 14.8794C52.3592 15.1231 52.2462 15.403 52.1943 15.699C52.1424 15.9949 52.1529 16.2994 52.225 16.5905V16.7025C52.0062 16.744 51.7906 16.8028 51.58 16.8784L51.22 17.0063L50.26 17.3421C49.974 17.4315 49.7132 17.5951 49.5011 17.8184C49.2891 18.0417 49.1323 18.3177 49.045 18.6215C48.9752 18.8764 48.9661 19.1459 49.0185 19.4056C49.0709 19.6652 49.1831 19.9069 49.345 20.1087C49.9458 20.801 50.6442 21.3891 51.415 21.8518C52.1695 22.3878 53.0242 22.7424 53.92 22.8913H56.44C56.7435 22.8758 57.0456 22.9425 57.3184 23.0851C57.5912 23.2277 57.8257 23.4416 58 23.7069C58.0816 23.7966 58.1418 23.9058 58.1758 24.0255C58.2097 24.1451 58.2163 24.2716 58.195 24.3945C58.1651 24.5982 58.0878 24.7907 57.97 24.9542C57.2236 25.6051 56.7185 26.5177 56.545 27.5289C56.3507 28.2806 56.1102 29.0178 55.825 29.7358C55.645 30.2315 55.48 30.7113 55.36 31.0951C54.8568 31.1337 54.351 31.0905 53.86 30.9671C53.9795 29.779 53.7149 28.5829 53.11 27.5769C52.6055 26.9414 52.3244 26.1385 52.315 25.306C52.4119 24.5164 52.2438 23.7156 51.8402 23.0454C51.4367 22.3752 50.8238 21.8788 50.11 21.6439C48.4307 20.5312 46.9564 19.1004 45.76 17.4221C46.6268 15.6131 47.9523 14.0996 49.5857 13.0537C51.219 12.0077 53.0949 11.4712 55 11.5051L54.865 11.777C54.8541 11.7343 54.8521 11.6896 54.859 11.6462ZM54.859 11.6462C54.8605 11.6364 54.8625 11.6267 54.865 11.6171C54.865 11.6263 54.8629 11.6361 54.859 11.6462ZM55 9.50615C51.9175 9.40267 48.9225 10.6076 46.6726 12.8564C44.4227 15.1051 43.1018 18.2139 43 21.5C43.1018 24.7861 44.4227 27.8949 46.6726 30.1437C48.9225 32.3924 51.9175 33.5973 55 33.4938C58.0825 33.5973 61.0775 32.3924 63.3274 30.1437C65.5773 27.8949 66.8982 24.7861 67 21.5C66.8982 18.2139 65.5773 15.1051 63.3274 12.8564C61.0775 10.6076 58.0825 9.40267 55 9.50615ZM65.065 20.3806L63.22 19.9008C62.845 19.7889 62.815 19.7569 62.785 19.7089C62.56 19.3891 62.305 18.9573 62.065 18.5415C62.065 18.4528 61.9909 18.3336 61.9234 18.2253C61.8815 18.158 61.8423 18.0948 61.825 18.0458C61.7891 17.9437 62.1449 17.3933 62.4121 16.9801C62.4797 16.8756 62.5416 16.7799 62.59 16.7025C62.8487 16.4157 63.1472 16.173 63.475 15.9828C64.3472 17.2807 64.8944 18.7944 65.065 20.3806ZM44.875 21.5C44.8747 20.8767 44.935 20.255 45.055 19.645C46.2864 21.2162 47.782 22.5287 49.465 23.515C50.365 23.8668 50.5 24.2346 50.5 25.306C50.5033 26.6427 50.9617 27.9327 51.79 28.9362C52.0112 29.6299 52.083 30.3678 52 31.0951C49.9953 30.5392 48.2152 29.3018 46.9295 27.5703C45.6437 25.8389 44.9225 23.7078 44.875 21.5ZM57.355 31.223C57.355 31.0631 57.435 30.889 57.515 30.7148C57.555 30.6278 57.595 30.5407 57.625 30.4554C57.966 29.6283 58.2419 28.7725 58.45 27.8967C58.5675 27.3543 58.8528 26.8699 59.26 26.5214C59.7849 25.9713 60.0911 25.2268 60.115 24.4425C60.1334 24.0706 60.0803 23.6987 59.9591 23.3494C59.8379 23.0002 59.651 22.681 59.41 22.4115C59.0492 21.9396 58.5902 21.5639 58.0695 21.314C57.5487 21.0642 56.9806 20.9472 56.41 20.9723H54.025C52.9048 20.6487 51.8752 20.0395 51.025 19.1972L51.73 18.9413L52.135 18.8134C52.3134 18.7263 52.5092 18.6879 52.705 18.7014L52.84 18.9413C52.9523 19.1658 53.1389 19.3376 53.3635 19.4233C53.5881 19.5091 53.8346 19.5026 54.055 19.4051C54.2732 19.2966 54.4459 19.1059 54.5401 18.8697C54.6343 18.6335 54.6431 18.3685 54.565 18.1257V17.8379C54.4 17.3581 54.205 16.6865 54.085 16.2387C54.4741 16.2561 54.8602 16.1595 55.2013 15.9593C55.5425 15.7591 55.8256 15.463 56.02 15.1033C56.1131 14.8353 56.1372 14.5457 56.0897 14.2644C56.0422 13.9832 55.9249 13.7206 55.75 13.5041C55.9265 13.3352 56.0919 13.1535 56.245 12.9604C56.3827 12.7847 56.4834 12.5796 56.5403 12.3589C56.5973 12.1382 56.6091 11.907 56.575 11.681C58.6716 12.0101 60.6238 13.0145 62.17 14.5596C61.7161 14.8551 61.3148 15.2341 60.985 15.679C60.6277 16.2357 60.3069 16.8181 60.025 17.4221C59.904 17.7949 59.8735 18.1942 59.9365 18.5829C59.9995 18.9717 60.1538 19.337 60.385 19.645C60.655 20.1407 60.955 20.6205 61.225 21.0202C61.5971 21.5203 62.1331 21.8517 62.725 21.9478C63.055 22.0437 64.225 22.2996 65.05 22.4755C64.7848 24.6076 63.9 26.5977 62.52 28.1665C61.1399 29.7354 59.3338 30.8042 57.355 31.223Z" fill="#17254B"/>
<path d="M54.859 11.6462C54.8366 11.7038 54.7552 11.775 54.6643 11.8544C54.6057 11.9056 54.5431 11.9602 54.49 12.0169L54.04 12.4806C53.8348 12.7087 53.7105 13.006 53.6886 13.3212C53.6667 13.6364 53.7485 13.9499 53.92 14.2077H53.74C53.5031 14.215 53.2709 14.2792 53.0605 14.3955C52.8501 14.5118 52.6671 14.6772 52.525 14.8794C52.3592 15.1231 52.2462 15.403 52.1943 15.699C52.1424 15.9949 52.1529 16.2994 52.225 16.5905V16.7025C52.0062 16.744 51.7906 16.8028 51.58 16.8784L51.22 17.0063L50.26 17.3421C49.974 17.4315 49.7132 17.5951 49.5011 17.8184C49.2891 18.0417 49.1323 18.3177 49.045 18.6215C48.9752 18.8764 48.9661 19.1459 49.0185 19.4056C49.0709 19.6652 49.1831 19.9069 49.345 20.1087C49.9458 20.801 50.6442 21.3891 51.415 21.8518C52.1695 22.3878 53.0242 22.7424 53.92 22.8913H56.44C56.7435 22.8758 57.0456 22.9425 57.3184 23.0851C57.5912 23.2277 57.8257 23.4416 58 23.7069C58.0816 23.7966 58.1418 23.9058 58.1758 24.0255C58.2097 24.1451 58.2163 24.2716 58.195 24.3945C58.1651 24.5982 58.0878 24.7907 57.97 24.9542C57.2236 25.6051 56.7185 26.5177 56.545 27.5289C56.3507 28.2806 56.1102 29.0178 55.825 29.7358C55.645 30.2315 55.48 30.7113 55.36 31.0951C54.8568 31.1337 54.351 31.0905 53.86 30.9671C53.9795 29.779 53.7149 28.5829 53.11 27.5769C52.6055 26.9414 52.3244 26.1385 52.315 25.306C52.4119 24.5164 52.2438 23.7156 51.8402 23.0454C51.4367 22.3752 50.8238 21.8788 50.11 21.6439C48.4307 20.5312 46.9564 19.1004 45.76 17.4221C46.6268 15.6131 47.9523 14.0996 49.5857 13.0537C51.219 12.0077 53.0949 11.4712 55 11.5051L54.865 11.777C54.8541 11.7343 54.8521 11.6896 54.859 11.6462ZM54.859 11.6462C54.8605 11.6364 54.8625 11.6267 54.865 11.6171C54.865 11.6263 54.8629 11.6361 54.859 11.6462ZM55 9.50615C51.9175 9.40267 48.9225 10.6076 46.6726 12.8564C44.4227 15.1051 43.1018 18.2139 43 21.5C43.1018 24.7861 44.4227 27.8949 46.6726 30.1437C48.9225 32.3924 51.9175 33.5973 55 33.4938C58.0825 33.5973 61.0775 32.3924 63.3274 30.1437C65.5773 27.8949 66.8982 24.7861 67 21.5C66.8982 18.2139 65.5773 15.1051 63.3274 12.8564C61.0775 10.6076 58.0825 9.40267 55 9.50615ZM65.065 20.3806L63.22 19.9008C62.845 19.7889 62.815 19.7569 62.785 19.7089C62.56 19.3891 62.305 18.9573 62.065 18.5415C62.065 18.4528 61.9909 18.3336 61.9234 18.2253C61.8815 18.158 61.8423 18.0948 61.825 18.0458C61.7891 17.9437 62.1449 17.3933 62.4121 16.9801C62.4797 16.8756 62.5416 16.7799 62.59 16.7025C62.8487 16.4157 63.1472 16.173 63.475 15.9828C64.3472 17.2807 64.8944 18.7944 65.065 20.3806ZM44.875 21.5C44.8747 20.8767 44.935 20.255 45.055 19.645C46.2864 21.2162 47.782 22.5287 49.465 23.515C50.365 23.8668 50.5 24.2346 50.5 25.306C50.5033 26.6427 50.9617 27.9327 51.79 28.9362C52.0112 29.6299 52.083 30.3678 52 31.0951C49.9953 30.5392 48.2152 29.3018 46.9295 27.5703C45.6437 25.8389 44.9225 23.7078 44.875 21.5ZM57.355 31.223C57.355 31.0631 57.435 30.889 57.515 30.7148C57.555 30.6278 57.595 30.5407 57.625 30.4554C57.966 29.6283 58.2419 28.7725 58.45 27.8967C58.5675 27.3543 58.8528 26.8699 59.26 26.5214C59.7849 25.9713 60.0911 25.2268 60.115 24.4425C60.1334 24.0706 60.0803 23.6987 59.9591 23.3494C59.8379 23.0002 59.651 22.681 59.41 22.4115C59.0492 21.9396 58.5902 21.5639 58.0695 21.314C57.5487 21.0642 56.9806 20.9472 56.41 20.9723H54.025C52.9048 20.6487 51.8752 20.0395 51.025 19.1972L51.73 18.9413L52.135 18.8134C52.3134 18.7263 52.5092 18.6879 52.705 18.7014L52.84 18.9413C52.9523 19.1658 53.1389 19.3376 53.3635 19.4233C53.5881 19.5091 53.8346 19.5026 54.055 19.4051C54.2732 19.2966 54.4459 19.1059 54.5401 18.8697C54.6343 18.6335 54.6431 18.3685 54.565 18.1257V17.8379C54.4 17.3581 54.205 16.6865 54.085 16.2387C54.4741 16.2561 54.8602 16.1595 55.2013 15.9593C55.5425 15.7591 55.8256 15.463 56.02 15.1033C56.1131 14.8353 56.1372 14.5457 56.0897 14.2644C56.0422 13.9832 55.9249 13.7206 55.75 13.5041C55.9265 13.3352 56.0919 13.1535 56.245 12.9604C56.3827 12.7847 56.4834 12.5796 56.5403 12.3589C56.5973 12.1382 56.6091 11.907 56.575 11.681C58.6716 12.0101 60.6238 13.0145 62.17 14.5596C61.7161 14.8551 61.3148 15.2341 60.985 15.679C60.6277 16.2357 60.3069 16.8181 60.025 17.4221C59.904 17.7949 59.8735 18.1942 59.9365 18.5829C59.9995 18.9717 60.1538 19.337 60.385 19.645C60.655 20.1407 60.955 20.6205 61.225 21.0202C61.5971 21.5203 62.1331 21.8517 62.725 21.9478C63.055 22.0437 64.225 22.2996 65.05 22.4755C64.7848 24.6076 63.9 26.5977 62.52 28.1665C61.1399 29.7354 59.3338 30.8042 57.355 31.223Z" stroke="#17254B"/>
<path d="M80.8082 25.483H84.4787L87.0625 28.8516L88.282 30.3487L92.3991 35.7216H88.5838L85.831 32.1357L84.8892 30.8317L80.8082 25.483ZM93.196 21.1364C93.196 23.7765 92.7131 26.0464 91.7472 27.946C90.7813 29.8376 89.4572 31.2945 87.7749 32.3168C86.1006 33.331 84.197 33.8381 82.0639 33.8381C79.9228 33.8381 78.0111 33.331 76.3288 32.3168C74.6546 31.2945 73.3345 29.8336 72.3686 27.9339C71.4027 26.0343 70.9197 23.7685 70.9197 21.1364C70.9197 18.4962 71.4027 16.2303 72.3686 14.3388C73.3345 12.4392 74.6546 10.9822 76.3288 9.96804C78.0111 8.94579 79.9228 8.43466 82.0639 8.43466C84.197 8.43466 86.1006 8.94579 87.7749 9.96804C89.4572 10.9822 90.7813 12.4392 91.7472 14.3388C92.7131 16.2303 93.196 18.4962 93.196 21.1364ZM89.5014 21.1364C89.5014 19.1241 89.1754 17.4297 88.5234 16.0533C87.8795 14.6688 86.9941 13.6224 85.8672 12.9141C84.7483 12.1977 83.4806 11.8395 82.0639 11.8395C80.6392 11.8395 79.3674 12.1977 78.2486 12.9141C77.1297 13.6224 76.2443 14.6688 75.5923 16.0533C74.9484 17.4297 74.6264 19.1241 74.6264 21.1364C74.6264 23.1487 74.9484 24.8471 75.5923 26.2315C76.2443 27.608 77.1297 28.6544 78.2486 29.3707C79.3674 30.0791 80.6392 30.4332 82.0639 30.4332C83.4806 30.4332 84.7483 30.0791 85.8672 29.3707C86.9941 28.6544 87.8795 27.608 88.5234 26.2315C89.1754 24.8471 89.5014 23.1487 89.5014 21.1364ZM109.306 25.8089V14.9545H112.928V33.5H109.378V30.2884H109.185C108.758 31.2784 108.074 32.1035 107.132 32.7635C106.199 33.4155 105.035 33.7415 103.643 33.7415C102.452 33.7415 101.397 33.4799 100.48 32.9567C99.57 32.4254 98.8536 31.6406 98.3304 30.6023C97.8153 29.5639 97.5577 28.2801 97.5577 26.7507V14.9545H101.168V26.3161C101.168 27.5798 101.518 28.5859 102.218 29.3345C102.919 30.0831 103.828 30.4574 104.947 30.4574C105.623 30.4574 106.295 30.2884 106.963 29.9503C107.639 29.6122 108.199 29.1011 108.642 28.4169C109.092 27.7327 109.314 26.8634 109.306 25.8089ZM125.771 33.8743C123.944 33.8743 122.371 33.4839 121.05 32.7031C119.738 31.9143 118.724 30.8075 118.008 29.3828C117.299 27.95 116.945 26.2718 116.945 24.348C116.945 22.4484 117.299 20.7741 118.008 19.3253C118.724 17.8764 119.722 16.7455 121.002 15.9325C122.29 15.1196 123.795 14.7131 125.518 14.7131C126.564 14.7131 127.578 14.8861 128.56 15.2322C129.542 15.5784 130.424 16.1217 131.205 16.8622C131.985 17.6027 132.601 18.5646 133.052 19.7479C133.503 20.9231 133.728 22.3518 133.728 24.0341V25.3139H118.986V22.6094H130.19C130.19 21.6596 129.997 20.8184 129.611 20.0859C129.224 19.3454 128.681 18.7618 127.981 18.3352C127.289 17.9086 126.476 17.6953 125.542 17.6953C124.528 17.6953 123.642 17.9448 122.886 18.4439C122.137 18.9349 121.558 19.5788 121.147 20.3757C120.745 21.1645 120.543 22.0218 120.543 22.9474V25.0604C120.543 26.3 120.761 27.3544 121.195 28.2237C121.638 29.093 122.254 29.7571 123.043 30.2159C123.831 30.6667 124.753 30.892 125.808 30.892C126.492 30.892 127.116 30.7955 127.679 30.6023C128.242 30.401 128.729 30.1032 129.14 29.7088C129.55 29.3144 129.864 28.8274 130.082 28.2479L133.499 28.8636C133.225 29.8698 132.734 30.7512 132.026 31.5078C131.325 32.2564 130.444 32.84 129.381 33.2585C128.327 33.669 127.124 33.8743 125.771 33.8743ZM151.631 19.4822L148.358 20.0618C148.222 19.6432 148.004 19.2448 147.706 18.8665C147.417 18.4882 147.022 18.1783 146.523 17.9368C146.024 17.6953 145.4 17.5746 144.652 17.5746C143.63 17.5746 142.776 17.804 142.092 18.2628C141.408 18.7135 141.066 19.2971 141.066 20.0135C141.066 20.6333 141.295 21.1323 141.754 21.5107C142.213 21.889 142.953 22.1989 143.976 22.4403L146.922 23.1165C148.628 23.5109 149.9 24.1186 150.737 24.9396C151.574 25.7607 151.993 26.8272 151.993 28.1392C151.993 29.25 151.671 30.2401 151.027 31.1094C150.391 31.9706 149.501 32.6468 148.358 33.1378C147.224 33.6288 145.907 33.8743 144.41 33.8743C142.334 33.8743 140.639 33.4316 139.327 32.5462C138.015 31.6527 137.21 30.3849 136.912 28.7429L140.402 28.2116C140.619 29.1212 141.066 29.8094 141.742 30.2763C142.418 30.7351 143.3 30.9645 144.386 30.9645C145.569 30.9645 146.515 30.719 147.224 30.228C147.932 29.7289 148.286 29.1212 148.286 28.4048C148.286 27.8253 148.069 27.3383 147.634 26.9439C147.207 26.5495 146.551 26.2517 145.666 26.0504L142.527 25.3622C140.796 24.9678 139.516 24.34 138.687 23.4787C137.866 22.6174 137.456 21.5268 137.456 20.2067C137.456 19.112 137.762 18.1541 138.373 17.3331C138.985 16.5121 139.83 15.8722 140.909 15.4134C141.988 14.9465 143.223 14.7131 144.616 14.7131C146.62 14.7131 148.198 15.1477 149.349 16.017C150.5 16.8783 151.26 18.0334 151.631 19.4822ZM164.619 14.9545V17.8523H154.489V14.9545H164.619ZM157.206 10.5114H160.816V28.0547C160.816 28.755 160.92 29.2822 161.13 29.6364C161.339 29.9825 161.609 30.2199 161.939 30.3487C162.277 30.4695 162.643 30.5298 163.037 30.5298C163.327 30.5298 163.581 30.5097 163.798 30.4695C164.015 30.4292 164.184 30.397 164.305 30.3729L164.957 33.3551C164.748 33.4356 164.45 33.5161 164.064 33.5966C163.677 33.6851 163.194 33.7334 162.615 33.7415C161.665 33.7576 160.779 33.5885 159.958 33.2344C159.137 32.8802 158.473 32.3329 157.966 31.5923C157.459 30.8518 157.206 29.9221 157.206 28.8033V10.5114Z" fill="#17254B"/>
</svg>
