<svg width="49" height="49" viewBox="0 0 49 49" fill="none" xmlns="http://www.w3.org/2000/svg">
<path d="M24.5 9.5C28.1 9.5 31.4094 10.7656 33.9969 12.8844L30.9406 15.9406C30.5094 16.3719 30.3875 17.0188 30.6125 17.5719C30.8375 18.125 31.3906 18.5 32 18.5H42.5C43.325 18.5 44 17.825 44 17V6.5C44 5.89062 43.6344 5.34688 43.0719 5.1125C42.5094 4.87813 41.8625 5.00938 41.4406 5.44063L38.2531 8.62812C34.5688 5.43125 29.7594 3.5 24.5 3.5C23.4781 3.5 22.4844 3.575 21.5 3.71562V9.8C22.4656 9.60312 23.4688 9.5 24.5 9.5ZM12.8844 15.0031L15.9406 18.0594C16.3719 18.4906 17.0188 18.6125 17.5719 18.3875C18.125 18.1625 18.5 17.6094 18.5 17V6.5C18.5 5.675 17.825 5 17 5H6.5C5.89062 5 5.34688 5.36563 5.1125 5.92813C4.87813 6.49063 5.00938 7.1375 5.44063 7.55938L8.62812 10.7469C5.43125 14.4313 3.5 19.2406 3.5 24.5C3.5 25.5219 3.575 26.5156 3.71562 27.5H9.8C9.60312 26.5344 9.5 25.5312 9.5 24.5C9.5 20.9 10.7656 17.5906 12.8844 15.0031ZM45.2844 21.5H39.2C39.3969 22.4656 39.5 23.4688 39.5 24.5C39.5 28.1 38.2344 31.4094 36.1156 33.9969L33.0594 30.9406C32.6281 30.5094 31.9812 30.3875 31.4281 30.6125C30.875 30.8375 30.5 31.3906 30.5 32V42.5C30.5 43.325 31.175 44 32 44H42.5C43.1094 44 43.6531 43.6344 43.8875 43.0719C44.1219 42.5094 43.9906 41.8625 43.5594 41.4406L40.3719 38.2531C43.5687 34.5688 45.5 29.7594 45.5 24.5C45.5 23.4781 45.425 22.4844 45.2844 21.5ZM24.5 39.5C20.9 39.5 17.5906 38.2344 15.0031 36.1156L18.0594 33.0594C18.4906 32.6281 18.6125 31.9812 18.3875 31.4281C18.1625 30.875 17.6094 30.5 17 30.5H6.5C5.675 30.5 5 31.175 5 32V42.5C5 43.1094 5.36563 43.6531 5.92813 43.8875C6.49063 44.1219 7.1375 43.9906 7.55938 43.5594L10.7469 40.3719C14.4313 43.5687 19.2406 45.5 24.5 45.5C25.5219 45.5 26.5156 45.425 27.5 45.2844V39.2C26.5344 39.3969 25.5312 39.5 24.5 39.5Z" fill="#008040"/>
</svg>
