<svg width="49" height="49" viewBox="0 0 49 49" fill="none" xmlns="http://www.w3.org/2000/svg">
<g clip-path="url(#clip0_8_43)">
<path fill-rule="evenodd" clip-rule="evenodd" d="M24.3629 0.568573C21.3249 0.568534 18.3728 1.57724 15.9701 3.43637C13.5674 5.29551 11.85 7.89982 11.0874 10.8406C8.04721 11.1984 5.25871 12.7047 3.29258 15.051C1.32646 17.3974 0.331376 20.4064 0.510982 23.4623C0.690588 26.5183 2.0313 29.39 4.25874 31.4899C6.48619 33.5898 9.43194 34.759 12.4931 34.7583H20.7971V45.0029C20.7971 45.9122 21.1584 46.7842 21.8013 47.4272C22.4443 48.0702 23.3164 48.4314 24.2257 48.4314C25.135 48.4314 26.0071 48.0702 26.6501 47.4272C27.2931 46.7842 27.6543 45.9122 27.6543 45.0029V34.7583H36.5069C39.5883 34.7528 42.5495 33.5621 44.7771 31.433C47.0046 29.3038 48.3277 26.3993 48.4723 23.3213C48.6169 20.2432 47.5718 17.2275 45.5536 14.8989C43.5354 12.5704 40.6988 11.1074 37.6314 10.8131C36.864 7.87863 35.1454 5.28131 32.7446 3.42762C30.3437 1.57393 27.3961 0.568471 24.3629 0.568573Z" fill="#08522D"/>
</g>
<defs>
<clipPath id="clip0_8_43">
<rect width="48" height="48" fill="white" transform="translate(0.5 0.5)"/>
</clipPath>
</defs>
</svg>
