<svg width="39" height="39" viewBox="0 0 39 39" fill="none" xmlns="http://www.w3.org/2000/svg">
<path d="M15.644 16.1C16.7243 17.0067 18.0896 17.5037 19.5 17.5037C20.9104 17.5037 22.2757 17.0067 23.356 16.1C24.436 15.1929 25.1621 13.9346 25.4071 12.5457C25.6521 11.1567 25.4004 9.72589 24.696 8.50401L20.506 2.05001C20.397 1.88288 20.2479 1.74558 20.0725 1.65054C19.897 1.55551 19.7006 1.50574 19.501 1.50574C19.3014 1.50574 19.105 1.55551 18.9295 1.65054C18.7541 1.74558 18.605 1.88288 18.496 2.05001L14.3 8.50401C13.5962 9.72621 13.345 11.1571 13.5904 12.5459C13.8358 13.9348 14.5641 15.1929 15.644 16.1Z" fill="#9AE7FF"/>
<path d="M3.644 36.1C4.72432 37.0067 6.0896 37.5037 7.5 37.5037C8.9104 37.5037 10.2757 37.0067 11.356 36.1C12.436 35.1929 13.1621 33.9346 13.4071 32.5457C13.6521 31.1567 13.4004 29.7259 12.696 28.504L8.506 22.05C8.39695 21.8829 8.24794 21.7456 8.07246 21.6505C7.89698 21.5555 7.70056 21.5057 7.501 21.5057C7.30144 21.5057 7.10502 21.5555 6.92954 21.6505C6.75406 21.7456 6.60505 21.8829 6.496 22.05L2.3 28.504C1.59624 29.7262 1.34503 31.1571 1.5904 32.5459C1.83577 33.9348 2.56406 35.1929 3.644 36.1Z" fill="#9AE7FF"/>
<path d="M27.644 36.1C28.7243 37.0067 30.0896 37.5037 31.5 37.5037C32.9104 37.5037 34.2757 37.0067 35.356 36.1C36.436 35.1929 37.1621 33.9346 37.4071 32.5457C37.6521 31.1567 37.4004 29.7259 36.696 28.504L32.506 22.05C32.397 21.8829 32.2479 21.7456 32.0725 21.6505C31.897 21.5555 31.7006 21.5057 31.501 21.5057C31.3014 21.5057 31.105 21.5555 30.9295 21.6505C30.7541 21.7456 30.605 21.8829 30.496 22.05L26.3 28.504C25.5962 29.7262 25.345 31.1571 25.5904 32.5459C25.8358 33.9348 26.5621 35.1929 27.642 36.1H27.644Z" fill="#9AE7FF"/>
<path d="M15.644 16.1C16.7243 17.0067 18.0896 17.5037 19.5 17.5037C20.9104 17.5037 22.2757 17.0067 23.356 16.1C24.436 15.1929 25.1621 13.9346 25.4071 12.5457C25.6521 11.1567 25.4004 9.72589 24.696 8.50401L20.506 2.05001C20.397 1.88288 20.2479 1.74558 20.0725 1.65054C19.897 1.55551 19.7006 1.50574 19.501 1.50574C19.3014 1.50574 19.105 1.55551 18.9295 1.65054C18.7541 1.74558 18.605 1.88288 18.496 2.05001L14.3 8.50401C13.5962 9.72621 13.345 11.1571 13.5904 12.5459C13.8358 13.9348 14.5641 15.1929 15.644 16.1Z" stroke="#9AE7FF" stroke-width="2" stroke-linecap="round" stroke-linejoin="round"/>
<path d="M3.644 36.1C4.72432 37.0067 6.0896 37.5037 7.5 37.5037C8.9104 37.5037 10.2757 37.0067 11.356 36.1C12.436 35.1929 13.1621 33.9346 13.4071 32.5457C13.6521 31.1567 13.4004 29.7259 12.696 28.504L8.506 22.05C8.39695 21.8829 8.24794 21.7456 8.07246 21.6505C7.89698 21.5555 7.70056 21.5057 7.501 21.5057C7.30144 21.5057 7.10502 21.5555 6.92954 21.6505C6.75406 21.7456 6.60505 21.8829 6.496 22.05L2.3 28.504C1.59624 29.7262 1.34503 31.1571 1.5904 32.5459C1.83577 33.9348 2.56406 35.1929 3.644 36.1Z" stroke="#9AE7FF" stroke-width="2" stroke-linecap="round" stroke-linejoin="round"/>
<path d="M27.644 36.1C28.7243 37.0067 30.0896 37.5037 31.5 37.5037C32.9104 37.5037 34.2757 37.0067 35.356 36.1C36.436 35.1929 37.1621 33.9346 37.4071 32.5457C37.6521 31.1567 37.4004 29.7259 36.696 28.504L32.506 22.05C32.397 21.8829 32.2479 21.7456 32.0725 21.6505C31.897 21.5555 31.7006 21.5057 31.501 21.5057C31.3014 21.5057 31.105 21.5555 30.9295 21.6505C30.7541 21.7456 30.605 21.8829 30.496 22.05L26.3 28.504C25.5962 29.7262 25.345 31.1571 25.5904 32.5459C25.8358 33.9348 26.5621 35.1929 27.642 36.1H27.644Z" stroke="#9AE7FF" stroke-width="2" stroke-linecap="round" stroke-linejoin="round"/>
</svg>
