<?xml version="1.0" ?><!DOCTYPE svg  PUBLIC '-//W3C//DTD SVG 1.1//EN'  'http://www.w3.org/Graphics/SVG/1.1/DTD/svg11.dtd'><!-- Uploaded to: SVG Repo, www.svgrepo.com, Generator: SVG Repo Mixer Tools -->
<svg width="800px" height="800px" viewBox="0 0 32 32" style="fill-rule:evenodd;clip-rule:evenodd;stroke-linejoin:round;stroke-miterlimit:2;" version="1.1" xml:space="preserve" xmlns="http://www.w3.org/2000/svg" xmlns:serif="http://www.serif.com/" xmlns:xlink="http://www.w3.org/1999/xlink"><path d="M12.663,2l6.845,0c0.292,0 0.559,0.118 0.752,0.312c0.192,0.192 0.312,0.458 0.312,0.75l0,1.593c0,0.291 -0.118,0.558 -0.312,0.752c-0.191,0.191 -0.458,0.312 -0.752,0.312l-0.13,-0c0.869,1.483 1.55,3.012 2.04,4.582c0.544,1.739 0.859,3.532 0.948,5.382l-0,0.018l0.002,0l0,11.154c0,0.016 0,0.032 -0.002,0.048c-0.039,0.834 -0.244,1.532 -0.654,2.062c-0.426,0.552 -1.055,0.905 -1.923,1.03c-0.019,0.003 -0.037,0.005 -0.057,0.005l-7.215,-0c-0.015,-0 -0.031,-0 -0.047,-0.002c-0.798,-0.034 -1.399,-0.306 -1.842,-0.773c-0.432,-0.46 -0.692,-1.096 -0.818,-1.875c-0.002,-0.021 -0.004,-0.041 -0.004,-0.062l-0.002,0l-0,-11.552c-0,-0.019 -0,-0.035 0.002,-0.05c0.157,-1.992 0.501,-3.84 1,-5.535c0.479,-1.623 1.099,-3.104 1.832,-4.432c-0.282,-0.007 -0.538,-0.126 -0.724,-0.312c-0.192,-0.192 -0.313,-0.458 -0.313,-0.752l0,-1.593c0,-0.292 0.119,-0.558 0.313,-0.75c0.191,-0.194 0.458,-0.312 0.749,-0.312Zm5.877,3.858l-5.091,0.036c-0.758,1.335 -1.399,2.833 -1.884,4.48c-0.483,1.641 -0.818,3.434 -0.968,5.369l-0,11.518c0.102,0.604 0.296,1.087 0.606,1.417c0.298,0.317 0.72,0.502 1.294,0.524l7.21,0c0.633,-0.095 1.082,-0.346 1.376,-0.724c0.305,-0.394 0.458,-0.939 0.488,-1.611l-0,-11.166c-0.087,-1.772 -0.39,-3.493 -0.914,-5.163c-0.499,-1.609 -1.206,-3.17 -2.117,-4.68Zm0.968,-3.063l-6.845,0c-0.073,0 -0.139,0.03 -0.189,0.08c-0.048,0.048 -0.08,0.116 -0.08,0.189l0,1.593c0,0.073 0.03,0.139 0.08,0.189c0.048,0.048 0.116,0.08 0.189,0.08l6.845,-0c0.073,-0 0.139,-0.03 0.189,-0.08c0.048,-0.048 0.08,-0.116 0.08,-0.189l0,-1.595c0,-0.073 -0.029,-0.139 -0.08,-0.189c-0.047,-0.048 -0.116,-0.078 -0.189,-0.078Z" style="fill:#32b2ff;fill-rule:nonzero;"/><circle cx="13.5" cy="19.333" r="1" style="fill:#32b2ff;"/><path d="M14.373,23.5c-1.034,0 -1.873,0.839 -1.873,1.873c-0,1.034 0.839,1.874 1.873,1.874c1.034,-0 1.874,-0.84 1.874,-1.874c-0,-1.034 -0.84,-1.873 -1.874,-1.873Zm0,1c0.482,0 0.874,0.391 0.874,0.873c-0,0.482 -0.392,0.874 -0.874,0.874c-0.482,-0 -0.873,-0.392 -0.873,-0.874c0,-0.482 0.391,-0.873 0.873,-0.873Z" style="fill:#32b2ff;"/><path d="M19.066,18.833c-1.062,0 -1.924,0.862 -1.924,1.924c0,1.061 0.862,1.923 1.924,1.923c1.061,0 1.923,-0.862 1.923,-1.923c0,-1.062 -0.862,-1.924 -1.923,-1.924Zm-0,1c0.51,0 0.923,0.414 0.923,0.924c0,0.509 -0.413,0.923 -0.923,0.923c-0.51,0 -0.924,-0.414 -0.924,-0.923c0,-0.51 0.414,-0.924 0.924,-0.924Z" style="fill:#32b2ff;"/><path d="M21.748,15.533c-0.706,-0.269 -1.619,-0.745 -2.516,-0.961c-0.696,-0.167 -1.384,-0.179 -1.989,0.093c-0.262,0.117 -0.476,0.294 -0.683,0.476c-0.178,0.156 -0.339,0.335 -0.608,0.361c-0.306,0.03 -0.588,-0.116 -0.866,-0.271c-0.395,-0.221 -0.777,-0.478 -1.148,-0.606c-1.294,-0.446 -2.665,0.299 -3.691,0.961c-0.231,0.149 -0.298,0.459 -0.149,0.691c0.15,0.232 0.46,0.299 0.691,0.149c0.426,-0.275 0.918,-0.583 1.44,-0.773c0.449,-0.164 0.921,-0.242 1.382,-0.083c0.321,0.111 0.646,0.344 0.988,0.534c0.459,0.257 0.943,0.443 1.449,0.394c0.434,-0.042 0.748,-0.243 1.038,-0.489c0.179,-0.152 0.341,-0.331 0.566,-0.432c0.526,-0.236 1.143,-0.114 1.748,0.082c0.72,0.233 1.425,0.592 1.993,0.808c0.257,0.098 0.547,-0.031 0.645,-0.289c0.098,-0.258 -0.032,-0.547 -0.29,-0.645Z" style="fill:#32b2ff;"/></svg>