<?xml version="1.0" encoding="utf-8"?>
<!-- Uploaded to: SVG Repo, www.svgrepo.com, Generator: SVG Repo Mixer Tools -->
<svg width="800px" height="800px" viewBox="0 -53.36 276.499 276.499" xmlns="http://www.w3.org/2000/svg"><defs><style>.a{fill:#f7cb95;}.b{fill:#89705d;}.c{fill:#211715;}</style></defs><path class="a" d="M112.133,2.913c-7.989.012-15.486.021-22.281.029a3.854,3.854,0,0,0-1.935.519C63.786,17.363,31.7,35.835,4.458,51.521a3.93,3.93,0,0,0-1.971,3.416c.02,24.281.044,82.732.047,108.488a3.941,3.941,0,0,0,3.947,3.942c28.076-.011,136.062-.123,186.236-.417a3.863,3.863,0,0,0,1.922-.521c26.261-15.12,55.557-31.985,77.473-44.609a3.919,3.919,0,0,0,1.969-3.41c-.044-27.142-.239-89.311-.272-112.02a3.941,3.941,0,0,0-3.97-3.934C232.375,2.7,162.468,2.842,112.133,2.913Z"/><path class="b" d="M164.878,2.825c-23.39,13.471-54.595,31.436-81.6,46.985a2.617,2.617,0,0,0-1.311,2.275v12.99a1.521,1.521,0,0,0,2.084,1.412c1.867-.752,3.216-1.972,4.525-1.972a3.926,3.926,0,0,1,1.93.92c.93.67,1.89,1.46,2.68,1.46,1.51,0,4.12-2.55,5.29-2.55,1.67,0,4.11,2.67,5.25,2.67,1.36,0,2.69-2.69,4.19-2.69,1.56,0,2.65,1.03,3.93,1.98a1.292,1.292,0,0,0,2.07-1.02c.018-3.582.042-8.36.061-11.8a2.729,2.729,0,0,1,1.367-2.355c27.582-15.884,60-34.537,84.062-48.4Z"/><path class="c" d="M113.978,56.135q24.813-.07,49.625-.191,10.1-.053,20.2-.126c.419,0,4.087.171,4.158-.033a1.542,1.542,0,0,1-.331-.154c-.224-.193-.061-.426-.108.014a11.192,11.192,0,0,0,0,1.215q0,2.671.008,5.344.032,14.736.088,29.472.057,16.836.115,33.672.042,12.951.066,25.9,0,1.023,0,2.045c0,3.088,4.8,3.093,4.8,0q0-12.333-.057-24.666-.054-17.112-.116-34.222-.053-15.421-.094-30.842-.006-2.846-.01-5.691c0-2.614.094-5.673-2.965-6.653a14.964,14.964,0,0,0-4.566-.21l-4.423.032q-5.09.036-10.178.065-24.738.144-49.476.207l-6.735.02c-3.088.008-3.094,4.808,0,4.8Z"/><path class="c" d="M81.08,51.413q-24.743.044-49.485.067l-7.579,0c-3.089,0-3.094,4.8,0,4.8q19.736,0,39.472-.041,8.8-.014,17.592-.029c3.088-.005,3.094-4.8,0-4.8Z"/><path class="c" d="M112.133.513,98.574.532,92.143.54c-2.1,0-3.916-.007-5.791,1.053C79.54,5.439,72.792,9.4,66.014,13.307Q43.673,26.174,21.331,39.036l-11.01,6.339L4.846,48.527c-1.684.97-3.3,1.884-4.148,3.726-1.043,2.266-.609,5.255-.607,7.7q0,3.847.005,7.7.012,18.938.02,37.876.007,19.794.014,39.589,0,7.976,0,15.95a16.709,16.709,0,0,0,.188,3.873,6.353,6.353,0,0,0,3.255,4.118c1.831.911,3.92.706,5.906.7q12.08-.006,24.159-.02,16.933-.017,33.866-.042,19.443-.029,38.884-.067,19.515-.04,39.032-.095,17.438-.051,34.875-.127,3.727-.017,7.456-.036c2.9-.015,5.908.349,8.517-1.119,7.654-4.307,15.226-8.766,22.837-13.148q22.242-12.805,44.482-25.613c3.235-1.863,6.577-3.612,9.733-5.6a6.451,6.451,0,0,0,3.1-4.783,31.128,31.128,0,0,0,.056-3.537q-.015-7.9-.034-15.8-.047-19.424-.1-38.847-.05-18.817-.1-37.635-.016-7.081-.03-14.163c0-2.846.087-5.67-2.366-7.644S267.98.068,265.03.086Q245.595.2,226.16.258q-23.064.08-46.129.13-23.444.055-46.885.093Q122.64.5,112.133.513c-3.088.005-3.093,4.805,0,4.8q21.906-.03,43.811-.073,23.118-.045,46.235-.108,21.3-.058,42.6-.146,9.1-.037,18.2-.088l4.036-.024c1.015-.006,2.684-.329,3.584.159,1.4.76.806,3.767.809,5.12q.029,15.893.076,31.785.051,19.5.1,39,.045,16.93.081,33.86c0,1.085.026,2.172,0,3.257-.03,1.551-1.147,1.907-2.374,2.614l-9.673,5.571-21.154,12.18-22.446,12.924-11.288,6.5c-3.687,2.123-7.319,4.458-11.107,6.395a7.5,7.5,0,0,1-3.36.328l-3.473.019q-3.767.02-7.534.036-8.158.036-16.316.065-18.4.066-36.8.108-19.356.047-38.714.079-18.13.031-36.261.054-14.719.019-29.44.032l-10.8.007c-1.39,0-2.789.048-4.178,0-2.45-.081-1.832-2.758-1.833-4.545q0-17.149-.009-34.3-.008-19.941-.018-39.882L4.9,68.577q0-3.777,0-7.554,0-1.682,0-3.365a14.717,14.717,0,0,1,.028-3.021,1.759,1.759,0,0,1,.95-1.159c.915-.572,1.875-1.079,2.81-1.617l5.3-3.05,10.832-6.236Q35.84,36.223,46.873,29.869,67.558,17.959,88.242,6.044a3.68,3.68,0,0,1,2.064-.7q1.383,0,2.767,0l5.991-.007q6.536-.009,13.069-.018C115.222,5.309,115.227.509,112.133.513Z"/><path class="c" d="M202.982,49.252Q224.44,36.9,245.9,24.541l11.16-6.428c2.676-1.541.262-5.691-2.422-4.145q-20.905,12.043-41.813,24.08l-12.262,7.059c-2.676,1.541-.262,5.69,2.423,4.145Z"/><path class="c" d="M163.667.752Q138.358,15.329,113.045,29.9L86.584,45.137l-3.019,1.738a8.623,8.623,0,0,0-3.131,2.4,5.818,5.818,0,0,0-.866,3.394v7.273c0,1.752-.1,3.538.016,5.286a3.942,3.942,0,0,0,5.393,3.45c1.081-.416,2.027-1.067,3.07-1.553.136-.064.616-.224.531-.212-.259.035-.528-.29.039.136.274.206.575.383.855.583a6.88,6.88,0,0,0,3.413,1.625,5.422,5.422,0,0,0,2.944-.758c.743-.384,1.426-.877,2.135-1.318a6.957,6.957,0,0,0,.96-.544c-.008.158-.418.035-.446.106q-.307-.057-.041.013c.144.047.165.051.064.01.646.491,1.43.879,2.106,1.344a7.079,7.079,0,0,0,2.32,1.2c1.893.438,3.99-.979,5.09-2.465.224-.3.258-.091-.1-.123a2.01,2.01,0,0,1,.859.306c1.027.575,1.8,1.533,2.974,1.829a3.737,3.737,0,0,0,3.376-.877,4.407,4.407,0,0,0,1.2-3.456l.036-7.109.018-3.385c.006-.977.426-.968,1.287-1.465l26.231-15.1q25.567-14.719,51.134-29.439l5.592-3.221c2.676-1.542.261-5.691-2.423-4.145q-24.155,13.914-48.314,27.817L124.25,43.236l-6.223,3.583c-1.937,1.116-4.563,2.1-5.751,4.1-1.13,1.9-.708,4.6-.719,6.713q-.018,3.449-.035,6.9a6.666,6.666,0,0,0,0,.758l.393-.536a.767.767,0,0,1,1.149-.517,12.43,12.43,0,0,0-1.241-.935,7,7,0,0,0-3.2-1.309c-2.283-.276-3.509,1.16-5.086,2.5-.334.285-.565.218.2.124.437-.054.589.182.031-.16-.745-.457-1.427-1.009-2.175-1.462a5.02,5.02,0,0,0-5.308-.385c-.719.376-1.378.859-2.067,1.283-.346.213-.715.387-1.062.6.095-.057.193-.191-.159.034.25-.16.542.269.293-.081a7.517,7.517,0,0,0-1.386-.95,9.9,9.9,0,0,0-1.185-.771,4.671,4.671,0,0,0-3.622-.367A15.122,15.122,0,0,0,84.326,63.7c-.235.127-.484.241-.715.374-.422.243-.3,0-.157.128.187.172,1.3.368.915.837.212-.263,0-1.573,0-1.9V52.617c0-.9.376-.881,1.245-1.381l25.525-14.7q24.828-14.3,49.655-28.592l5.3-3.05c2.676-1.541.261-5.691-2.423-4.145Z"/></svg>