<?xml version="1.0" encoding="iso-8859-1"?>
<!-- Uploaded to: SVG Repo, www.svgrepo.com, Generator: SVG Repo Mixer Tools -->
<svg height="800px" width="800px" version="1.1" id="Layer_1" xmlns="http://www.w3.org/2000/svg" xmlns:xlink="http://www.w3.org/1999/xlink" 
	 viewBox="0 0 512 512" xml:space="preserve">
<g>
	<path style="fill:#A4E7F0;" d="M470.111,512H258.267c-9.755,0-17.664-7.91-17.664-17.664V141.25c0-9.754,7.91-17.664,17.664-17.664
		h211.844c9.754,0,17.664,7.91,17.664,17.664v353.086C487.775,504.09,479.866,512,470.111,512"/>
	<path style="fill:#139DB5;" d="M240.602,450.207h247.172V203.034H240.602V450.207z"/>
	<path style="fill:#0F7984;" d="M364.188,326.621c0-68.255-55.331-123.586-123.586-123.586v247.172
		C308.857,450.207,364.188,394.876,364.188,326.621"/>
	<path style="fill:#2A373E;" d="M284.74,123.586h158.897v-35.31H284.74V123.586z"/>
	<path style="fill:#425B67;" d="M320.05,88.276h88.276V0H320.05V88.276z"/>
	<path style="fill:#2A373E;" d="M146.224,97.103h-0.344c-11.635,0-20.109-11.193-16.834-22.36
		c9.684-32.962,40.201-57.088,76.244-57.088h114.759v35.31H205.289c-19.774,0-36.546,13.074-42.143,31.029
		C160.772,91.604,154.195,97.103,146.224,97.103"/>
	<g>
		<path style="fill:#139DB5;" d="M337.706,203.034h52.966v-79.448h-52.966V203.034z"/>
		<path style="fill:#139DB5;" d="M65.78,140.096c0,0-35.098,30.332-41.119,68.696c-4.961,31.673,33.545,51.235,56.214,28.566l0,0
			c11.67-11.67,12.862-30.049,3.037-43.308C73.751,180.341,63.776,161.114,65.78,140.096"/>
		<path style="fill:#139DB5;" d="M171.711,140.096c0,0-35.098,30.332-41.119,68.696c-4.961,31.673,33.545,51.235,56.214,28.566l0,0
			c11.67-11.67,12.862-30.049,3.037-43.308C179.682,180.341,169.707,161.114,171.711,140.096"/>
		<path style="fill:#139DB5;" d="M105.604,272.509c0,0-35.098,30.332-41.119,68.696c-4.961,31.673,33.545,51.235,56.214,28.566l0,0
			c11.67-11.67,12.862-30.049,3.037-43.308C113.575,312.754,103.6,293.528,105.604,272.509"/>
	</g>
</g>
</svg>