<?xml version="1.0" encoding="iso-8859-1"?>
<!-- Uploaded to: SVG Repo, www.svgrepo.com, Generator: SVG Repo Mixer Tools -->
<svg version="1.1" id="Layer_1" xmlns="http://www.w3.org/2000/svg" xmlns:xlink="http://www.w3.org/1999/xlink" 
	 viewBox="0 0 496.067 496.067" xml:space="preserve">
<path style="fill:#246642;" d="M233.634,213.6c-4-8.8-8.8-21.6-12-29.6h-72c-3.2,8-8,20.8-12,29.6c-23.2,52.8-24,65.6-24,100v44.8
	v3.2v92c0,23.2,22.4,41.6,45.6,41.6h52.8c23.2,0,45.6-18.4,45.6-41.6v-91.2v-3.2v-44.8C249.634,280.8,256.834,266.4,233.634,213.6z"
	/>
<path style="fill:#15492A;" d="M233.634,213.6c-4-8.8-8.8-21.6-12-29.6h-40l30.4,312c23.2,0,45.6-18.4,45.6-41.6v-92v-3.2v-44.8
	C257.634,280,256.834,266.4,233.634,213.6z"/>
<path style="fill:#F4CF31;" d="M201.634,36c0,8-3.2,12-10.4,12h-11.2c-7.2,0-10.4-4.8-10.4-12V12.8c0-8,3.2-12.8,10.4-12.8h11.2
	c7.2,0,10.4,5.6,10.4,12.8V36z"/>
<polygon style="fill:#C93131;" points="113.634,320 113.634,359.2 113.634,362.4 113.634,454.4 113.634,456 257.634,456 
	257.634,454.4 257.634,362.4 257.634,359.2 257.634,320 "/>
<polyline style="fill:#A51919;" points="257.634,456 257.634,454.4 257.634,362.4 257.634,359.2 257.634,320 113.634,320 "/>
<polygon style="fill:#DCFFFC;" points="137.634,344 137.634,368 137.634,370.4 137.634,431.2 137.634,432 233.634,432 
	233.634,431.2 233.634,370.4 233.634,368 233.634,344 "/>
<polyline style="fill:#B8E0D9;" points="233.634,432 233.634,431.2 233.634,370.4 233.634,368 233.634,344 137.634,344 "/>
<path style="fill:#F4CF31;" d="M220.034,176c-13.6-56-15.2-128.8-15.2-128.8l-11.2-1.6V44l-8,0.8l-8-0.8v1.6l-11.2,1.6
	c0,0-2.4,72.8-15.2,128.8H220.034z"/>
<path style="fill:#E2B22B;" d="M177.634,176h42.4c-13.6-56-15.2-128.8-15.2-128.8l-11.2-1.6V44l-8,0.8l-8-0.8v4"/>
<ellipse transform="matrix(0.2434 -0.9699 0.9699 0.2434 -148.2678 336.4945)" style="fill:#338956;" cx="141.553" cy="263.284" rx="31.999" ry="8"/>
<path style="fill:#E2B22B;" d="M207.234,44c0,2.4-1.6,4-4,4h-35.2c-2.4,0-4-1.6-4-4l0,0c0-2.4,1.6-4,4-4h35.2
	C205.634,40,207.234,41.6,207.234,44L207.234,44z"/>
<path style="fill:#D39C20;" d="M207.234,44L207.234,44c0,2.4-1.6,4-4,4h-35.2c-2.4,0-4-1.6-4-4l0,0"/>
<path style="fill:#E2B22B;" d="M200.834,40c0.8-0.8,0.8-3.2,0.8-4V12.8c0-8-3.2-12.8-10.4-12.8h-12.8l-0.8,28.8L200.834,40z"/>
<g>
	<path style="fill:#A51919;" d="M177.634,386.4c-4,0-7.2,3.2-7.2,7.2s3.2,7.2,7.2,7.2s7.2-3.2,7.2-7.2S181.634,386.4,177.634,386.4z
		 M175.234,392c-0.8,1.6-2.4,2.4-3.2,1.6s-0.8-2.4,0-4s2.4-2.4,3.2-1.6C176.034,388.8,176.034,390.4,175.234,392z"/>
	<path style="fill:#A51919;" d="M193.634,386.4c-4,0-7.2,3.2-7.2,7.2s3.2,7.2,7.2,7.2s7.2-3.2,7.2-7.2S197.634,386.4,193.634,386.4z
		 M192.034,392c-0.8,1.6-2.4,2.4-3.2,1.6s-0.8-2.4,0-4s2.4-2.4,3.2-1.6S192.834,390.4,192.034,392z"/>
</g>
<g>
	<path style="fill:#C93131;" d="M168.834,370.4c-4,0-7.2,3.2-7.2,7.2s3.2,7.2,7.2,7.2s7.2-3.2,7.2-7.2
		C176.834,373.6,172.834,370.4,168.834,370.4z M167.234,376.8c-0.8,1.6-2.4,2.4-3.2,1.6s-0.8-2.4,0-4s2.4-2.4,3.2-1.6
		C168.034,373.6,168.034,375.2,167.234,376.8z"/>
	<path style="fill:#C93131;" d="M185.634,370.4c-4,0-7.2,3.2-7.2,7.2s3.2,7.2,7.2,7.2s7.2-3.2,7.2-7.2S189.634,370.4,185.634,370.4z
		 M183.234,376.8c-0.8,1.6-2.4,2.4-3.2,1.6s-0.8-2.4,0-4s2.4-2.4,3.2-1.6S184.834,375.2,183.234,376.8z"/>
	<path style="fill:#C93131;" d="M185.634,401.6c-4,0-7.2,3.2-7.2,7.2s3.2,7.2,7.2,7.2s7.2-3.2,7.2-7.2
		C192.834,404.8,189.634,401.6,185.634,401.6z M183.234,407.2c-0.8,1.6-2.4,2.4-3.2,1.6s-0.8-2.4,0-4s2.4-2.4,3.2-1.6
		C184.834,404,184.834,405.6,183.234,407.2z"/>
	<path style="fill:#C93131;" d="M201.634,370.4c-4,0-7.2,3.2-7.2,7.2s3.2,7.2,7.2,7.2s7.2-3.2,7.2-7.2
		C209.634,373.6,206.434,370.4,201.634,370.4z M200.034,376.8c-0.8,1.6-2.4,2.4-3.2,1.6s-0.8-2.4,0-4s2.4-2.4,3.2-1.6
		C200.834,373.6,200.834,375.2,200.034,376.8z"/>
</g>
<g>
	<path style="fill:#A51919;" d="M160.834,356c-4,0-7.2,3.2-7.2,7.2s3.2,7.2,7.2,7.2s7.2-3.2,7.2-7.2S164.834,356,160.834,356z
		 M159.234,362.4c-0.8,1.6-2.4,2.4-3.2,1.6s-0.8-2.4,0-4s2.4-2.4,3.2-1.6C160.034,359.2,160.034,360.8,159.234,362.4z"/>
	<path style="fill:#A51919;" d="M177.634,356c-4,0-7.2,3.2-7.2,7.2s3.2,7.2,7.2,7.2s7.2-3.2,7.2-7.2S181.634,356,177.634,356z
		 M175.234,362.4c-0.8,1.6-2.4,2.4-3.2,1.6s-0.8-2.4,0-4s2.4-2.4,3.2-1.6C176.034,359.2,176.034,360.8,175.234,362.4z"/>
	<path style="fill:#A51919;" d="M193.634,356c-4,0-7.2,3.2-7.2,7.2s3.2,7.2,7.2,7.2s7.2-3.2,7.2-7.2S197.634,356,193.634,356z
		 M192.034,362.4c-0.8,1.6-2.4,2.4-3.2,1.6s-0.8-2.4,0-4s2.4-2.4,3.2-1.6C192.834,359.2,192.834,360.8,192.034,362.4z"/>
	<path style="fill:#A51919;" d="M210.434,356c-4,0-7.2,3.2-7.2,7.2s3.2,7.2,7.2,7.2s7.2-3.2,7.2-7.2S214.434,356,210.434,356z
		 M208.034,362.4c-0.8,1.6-2.4,2.4-3.2,1.6s-0.8-2.4,0-4s2.4-2.4,3.2-1.6S208.834,360.8,208.034,362.4z"/>
</g>
<g>
	<path style="fill:#D5E2DF;" d="M375.234,496l0.8-3.2c0,4-20-12.8-44.8-12.8s-44.8,16.8-44.8,12.8c0,0.8,0,3.2,0.8,3.2H375.234z"/>
	<path style="fill:#D5E2DF;" d="M280.034,216c0.8,64,0.8,171.2,51.2,171.2c49.6,0,50.4-107.2,51.2-171.2L280.034,216L280.034,216z"
		/>
</g>
<path style="fill:#BECCCA;" d="M329.634,220v167.2l0,0c49.6,0,50.4-104.8,51.2-167.2L329.634,220z"/>
<path style="fill:#F7E15E;" d="M284.834,248c0.8,48,8.8,129.6,46.4,129.6s46.4-81.6,46.4-129.6H284.834z"/>
<path style="fill:#F4CF31;" d="M329.634,248.8v129.6c0,0,0,0,0.8,0c37.6,0,45.6-81.6,46.4-129.6H329.634z"/>
<path style="fill:#D5E2DF;" d="M333.634,478.4c0,3.2-0.8,5.6-4,5.6l0,0c-3.2,0-4-2.4-4-5.6v-89.6c0-3.2,0.8-5.6,4-5.6l0,0
	c3.2,0,4,2.4,4,5.6V478.4z"/>
<path style="fill:#BECCCA;" d="M329.634,383.2L329.634,383.2c3.2,0,4,2.4,4,5.6v89.6c0,3.2-0.8,5.6-4,5.6l0,0"/>
<rect x="283.234" y="488" style="fill:#D5E2DF;" width="96" height="8"/>
<g>
	
		<rect x="339.238" y="490.405" transform="matrix(-1 -0.0031 0.0031 -1 716.9351 987.5278)" style="fill:#BECCCA;" width="40" height="5.6"/>
	<path style="fill:#BECCCA;" d="M331.234,479.2c-0.8,0,0.8,2.4,0,2.4l3.2,14.4h41.6l0.8-3.2
		C376.034,496,356.034,479.2,331.234,479.2z"/>
</g>
<g>
	
		<ellipse transform="matrix(-0.0702 -0.9975 0.9975 -0.0702 22.4574 614.464)" style="fill:#FFF2B3;" cx="297.61" cy="296.765" rx="31.999" ry="4"/>
	<path style="fill:#FFF2B3;" d="M377.634,252c0,1.6-1.6,4-3.2,4h-87.2c-1.6,0-3.2-2.4-3.2-4l0,0c0-1.6,1.6-4,3.2-4h87.2
		C376.034,248,377.634,250.4,377.634,252L377.634,252z"/>
</g>
</svg>